<svg width="56" height="56" viewBox="0 0 56 56" fill="none" xmlns="http://www.w3.org/2000/svg">
<circle cx="9" cy="47" r="9" fill="#1CD5CF"/>
<circle cx="40" cy="16" r="16" fill="#F9C70C"/>
<g clip-path="url(#clip0_37_106)">
<path fill-rule="evenodd" clip-rule="evenodd" d="M24.5452 35.9355C24.2601 35.9371 23.981 35.8538 23.7434 35.6962C23.5058 35.5386 23.3204 35.3141 23.211 35.0508C23.1016 34.7875 23.073 34.4976 23.1289 34.218C23.1848 33.9385 23.3227 33.6819 23.5249 33.481C23.7992 33.2175 24.1648 33.0703 24.5452 33.0703C24.9256 33.0703 25.2912 33.2175 25.5655 33.481C25.6997 33.6136 25.8062 33.7716 25.8787 33.9458C25.9511 34.12 25.9882 34.3068 25.9877 34.4955C25.9877 34.821 26.117 35.1331 26.3471 35.3632C26.5773 35.5934 26.8894 35.7228 27.2149 35.7228C27.5404 35.7228 27.8526 35.5934 28.0828 35.3632C28.3129 35.1331 28.4422 34.821 28.4422 34.4955C28.4459 33.6114 28.1459 32.7526 27.5925 32.0631C27.0391 31.3736 26.2658 30.895 25.4018 30.7072L25.3609 29.9464C25.3609 29.6209 25.2316 29.3088 25.0015 29.0786C24.7713 28.8485 24.4592 28.7191 24.1337 28.7191C23.8082 28.7191 23.496 28.8485 23.2659 29.0786C23.0357 29.3088 22.9064 29.6209 22.9064 29.9464V30.9773C22.4917 31.1627 22.1133 31.4203 21.7888 31.7381C21.2427 32.2829 20.8706 32.9776 20.7198 33.734C20.569 34.4905 20.6462 35.2747 20.9416 35.9872C21.2371 36.6998 21.7374 37.3085 22.3793 37.7363C23.0211 38.164 23.7755 38.3916 24.5469 38.3901C24.891 38.3901 25.2273 38.4922 25.5133 38.6835C25.7993 38.8748 26.0221 39.1467 26.1535 39.4647C26.2849 39.7827 26.319 40.1325 26.2515 40.4699C26.1839 40.8073 26.0178 41.117 25.7741 41.36C25.544 41.5813 25.2586 41.7367 24.9478 41.81C24.69 41.81 24.4315 41.8182 24.1729 41.8182C23.7546 41.7326 23.3832 41.4939 23.1317 41.1488C22.8802 40.8037 22.7665 40.3772 22.8131 39.9527C22.8451 39.6289 22.7471 39.3057 22.5407 39.054C22.3344 38.8024 22.0365 38.643 21.7127 38.611C21.552 38.5927 21.3893 38.6066 21.2342 38.6521C21.079 38.6976 20.9345 38.7737 20.8092 38.8758C20.6839 38.978 20.5802 39.1042 20.5044 39.247C20.4285 39.3898 20.382 39.5462 20.3676 39.7072C20.2743 40.6001 20.4722 41.4992 20.9319 42.2704C21.3915 43.0416 22.0881 43.6435 22.9178 43.9863C22.945 44.2657 23.0674 44.5272 23.2646 44.727C23.4618 44.9267 23.7217 45.0526 24.0007 45.0833C24.2797 45.114 24.5608 45.0478 24.7967 44.8958C25.0326 44.7437 25.2091 44.5149 25.2963 44.2482C26.3262 44.0616 27.2491 43.4963 27.8831 42.6635C28.5172 41.8307 28.8166 40.7908 28.7224 39.7484C28.6282 38.7059 28.1473 37.7364 27.3742 37.0307C26.6011 36.3251 25.5919 35.9344 24.5452 35.9355ZM40.0907 43.4545C39.7634 39.7809 38.0272 28.3428 30.9221 23.9083C30.9287 23.8919 30.9377 23.8755 30.9434 23.8591L33.3979 17.3137C33.5367 16.9423 33.5834 16.5427 33.5341 16.1493C33.4848 15.7559 33.341 15.3804 33.1148 15.0547C32.8887 14.729 32.5871 14.4629 32.2357 14.2793C31.8843 14.0956 31.4937 13.9998 31.0972 14H17.9916C17.595 13.9996 17.2043 14.0954 16.8528 14.2791C16.5013 14.4627 16.1996 14.7286 15.9734 15.0543C15.7471 15.38 15.6032 15.7557 15.5539 16.1491C15.5045 16.5426 15.5512 16.9422 15.69 17.3137L18.1446 23.8591C18.1503 23.8755 18.1593 23.8919 18.1658 23.9083C11.0591 28.3428 9.32212 39.7809 8.99649 43.4545C8.91671 45.2369 9.49963 46.9856 10.6328 48.3636C11.1808 48.9194 11.8405 49.3526 12.5682 49.6347C13.296 49.9167 14.0753 50.0413 14.8547 50H34.2284C35.0079 50.0413 35.7873 49.9167 36.5152 49.6347C37.2431 49.3526 37.9029 48.9194 38.451 48.3636C39.5854 46.9861 40.1695 45.2373 40.0907 43.4545ZM17.9916 16.4545H31.1005L28.6459 23H20.4494L17.9916 16.4545ZM34.2317 47.5455H14.8579C12.9516 47.5455 11.2858 46.1709 11.4543 44.2727C12.0589 37.4573 14.6755 28.1055 20.4494 25.4545H28.641C34.4149 28.1055 37.0315 37.4573 37.6361 44.2727C37.8038 46.1709 36.138 47.5455 34.2317 47.5455Z" fill="#25265E"/>
</g>
<defs>
<clipPath id="clip0_37_106">
<rect width="31.0909" height="36" fill="white" transform="translate(9 14)"/>
</clipPath>
</defs>
</svg>
