<svg width="375" height="219" viewBox="0 0 375 219" fill="none" xmlns="http://www.w3.org/2000/svg">
<line x1="340.5" y1="2.5" x2="30.5" y2="2.49997" stroke="#EBEBFF" stroke-linecap="round" stroke-linejoin="round" stroke-dasharray="4 4"/>
<line x1="340.5" y1="44.5" x2="30.5" y2="44.5" stroke="#EBEBFF" stroke-linecap="round" stroke-linejoin="round" stroke-dasharray="4 4"/>
<line x1="340.5" y1="86.5" x2="30.5" y2="86.5" stroke="#EBEBFF" stroke-linecap="round" stroke-linejoin="round" stroke-dasharray="4 4"/>
<line x1="340.5" y1="128.5" x2="30.5" y2="128.5" stroke="#EBEBFF" stroke-linecap="round" stroke-linejoin="round" stroke-dasharray="4 4"/>
<line x1="340.5" y1="170.5" x2="30.5" y2="170.5" stroke="#EBEBFF" stroke-linecap="round" stroke-linejoin="round" stroke-dasharray="4 4"/>
<path d="M45.4515 200.914H38.5495V202.58H43.2255C43.2255 202.58 40.1875 205.114 39.8095 210H41.8115C42.2175 205.422 44.7655 203.112 45.4515 202.524V200.914Z" fill="#25265E" fill-opacity="0.7"/>
<path d="M102.997 204.638C102.157 204.624 101.667 204.092 101.667 203.448C101.667 202.846 102.157 202.3 102.997 202.3C103.851 202.3 104.341 202.846 104.341 203.448C104.341 204.092 103.851 204.624 102.997 204.638ZM102.997 208.614C102.003 208.614 101.471 207.998 101.471 207.354C101.471 206.696 101.975 206.066 102.997 206.066C104.019 206.066 104.537 206.696 104.537 207.354C104.537 207.998 104.005 208.614 102.997 208.614ZM102.997 210.21C105.069 210.21 106.427 209.118 106.427 207.55C106.427 206.57 105.783 205.688 104.831 205.338C105.741 205.002 106.245 204.106 106.245 203.308C106.245 201.782 104.887 200.704 102.997 200.704C101.107 200.704 99.7495 201.782 99.7495 203.308C99.7495 204.12 100.267 205.002 101.177 205.338C100.211 205.702 99.5675 206.57 99.5675 207.55C99.5675 209.118 100.925 210.21 102.997 210.21Z" fill="#25265E" fill-opacity="0.7"/>
<path d="M161.161 209.706C161.637 210 162.491 210.21 163.261 210.21C166.369 210.21 168.007 208.278 168.007 205.002C168.007 202.104 166.355 200.704 164.381 200.704C162.365 200.704 160.895 202.034 160.895 203.896C160.895 205.772 162.337 206.948 164.031 206.948C164.983 206.948 165.753 206.542 166.131 205.968C166.005 207.634 164.899 208.544 163.247 208.544C162.617 208.544 161.959 208.334 161.637 208.152L161.161 209.706ZM165.879 203.84C165.879 204.736 165.165 205.338 164.311 205.338C163.457 205.338 162.757 204.75 162.757 203.84C162.757 202.944 163.471 202.342 164.311 202.342C165.165 202.342 165.879 202.944 165.879 203.84Z" fill="#25265E" fill-opacity="0.7"/>
<path d="M220.817 210V200.914H219.151C218.969 201.866 218.045 202.608 216.715 202.622V203.924H218.899V210H220.817ZM224.488 205.464C224.488 204.512 224.628 203.7 224.978 203.154C225.258 202.706 225.692 202.412 226.35 202.412C227.022 202.412 227.428 202.706 227.708 203.154C228.072 203.7 228.212 204.512 228.212 205.464C228.212 206.416 228.072 207.228 227.708 207.774C227.428 208.222 227.022 208.516 226.35 208.516C225.692 208.516 225.258 208.222 224.978 207.774C224.628 207.228 224.488 206.416 224.488 205.464ZM222.556 205.464C222.556 206.626 222.738 207.76 223.354 208.698C223.956 209.594 224.936 210.224 226.35 210.224C227.764 210.224 228.744 209.594 229.332 208.698C229.948 207.76 230.144 206.626 230.144 205.464C230.144 204.302 229.948 203.168 229.332 202.23C228.744 201.334 227.764 200.704 226.35 200.704C224.936 200.704 223.956 201.334 223.354 202.23C222.738 203.168 222.556 204.302 222.556 205.464Z" fill="#25265E" fill-opacity="0.7"/>
<circle cx="280" cy="205" r="14" fill="#1CD8D2"/>
<path d="M278.985 210V200.914H277.319C277.137 201.866 276.213 202.608 274.883 202.622V203.924H277.067V210H278.985ZM284.536 210V200.914H282.87C282.688 201.866 281.764 202.608 280.434 202.622V203.924H282.618V210H284.536Z" fill="white"/>
<path d="M332.864 210V200.914H331.198C331.016 201.866 330.092 202.608 328.762 202.622V203.924H330.946V210H332.864ZM336.492 204.428C336.45 204.274 336.422 204.092 336.422 203.924C336.422 203.07 336.898 202.412 337.864 202.412C338.774 202.412 339.236 203 339.236 203.658C339.236 204.288 338.928 204.764 338.158 205.226L336.66 206.122C335.036 207.102 334.532 208.404 334.518 210H341.238V208.334H336.884C337.024 207.984 337.318 207.732 337.668 207.508L339.418 206.444C340.538 205.758 341.182 204.806 341.182 203.63C341.182 202.048 339.936 200.704 337.906 200.704C335.792 200.704 334.588 202.146 334.588 203.742C334.588 203.966 334.63 204.246 334.658 204.372L336.492 204.428Z" fill="#25265E" fill-opacity="0.7"/>
<path d="M-8 164.91C19.5 164.91 9.64156 109.153 42 139.41C56 152.5 54.6661 96.8524 76 94.9095C97.3339 92.9667 95.5679 134.025 122 128.91C143.497 124.749 164.87 39.4095 199.5 39.4095C226.5 39.4095 232.068 73.9094 247.5 73.9094C266 73.9094 272.467 49.9915 281.5 27.4095C294.5 -5.0905 323.5 -1 336.5 11.4095C366.057 39.6239 370.5 57.4095 398.5 42.4095" stroke="url(#paint0_linear_37_27)" stroke-width="4" stroke-linecap="round" stroke-linejoin="round"/>
<line x1="280" y1="28" x2="280" y2="193" stroke="#1CD8D2" stroke-width="2" stroke-linecap="round" stroke-linejoin="round"/>
<circle cx="280" cy="38" r="9" fill="white" stroke="#1C72D8" stroke-width="6"/>
<g filter="url(#filter0_d_37_27)">
<mask id="path-16-inside-1_37_27" fill="white">
<path fill-rule="evenodd" clip-rule="evenodd" d="M284.963 55H323C329.627 55 335 60.3726 335 67V103C335 109.627 329.627 115 323 115H231C224.373 115 219 109.627 219 103V67C219 60.3726 224.373 55 231 55H275.037L280 50.2143L284.963 55Z"/>
</mask>
<path fill-rule="evenodd" clip-rule="evenodd" d="M284.963 55H323C329.627 55 335 60.3726 335 67V103C335 109.627 329.627 115 323 115H231C224.373 115 219 109.627 219 103V67C219 60.3726 224.373 55 231 55H275.037L280 50.2143L284.963 55Z" fill="white"/>
<path d="M279.875 49.6401L279.653 49.8544L280.347 50.5742L280.569 50.3599L279.875 49.6401ZM284.963 55L284.269 55.7198L284.559 56H284.963V55ZM275.037 55V56H275.441L275.731 55.7198L275.037 55ZM280 50.2143L280.694 49.4944L280 48.8251L279.306 49.4944L280 50.2143ZM284.963 56H323V54H284.963V56ZM323 56C329.075 56 334 60.9249 334 67H336C336 59.8203 330.18 54 323 54V56ZM334 67V103H336V67H334ZM334 103C334 109.075 329.075 114 323 114V116C330.18 116 336 110.18 336 103H334ZM323 114H231V116H323V114ZM231 114C224.925 114 220 109.075 220 103H218C218 110.18 223.82 116 231 116V114ZM220 103V67H218V103H220ZM220 67C220 60.9249 224.925 56 231 56V54C223.82 54 218 59.8203 218 67H220ZM231 56H275.037V54H231V56ZM275.731 55.7198L280.694 50.9341L279.306 49.4944L274.343 54.2802L275.731 55.7198ZM279.306 50.9341L284.269 55.7198L285.657 54.2802L280.694 49.4944L279.306 50.9341Z" fill="#5B0CE0" fill-opacity="0.08" mask="url(#path-16-inside-1_37_27)"/>
</g>
<path d="M241.48 85.106V83.162C243.64 82.82 244.828 81.29 244.828 79.634C244.828 78.014 243.802 76.664 241.534 76.16L239.896 75.782C239.05 75.602 238.654 75.134 238.654 74.576C238.654 73.838 239.284 73.172 240.436 73.172C241.912 73.172 242.38 74.216 242.488 74.846L244.702 74.216C244.45 73.01 243.55 71.57 241.48 71.192V69.212H239.644V71.138C237.718 71.444 236.242 72.848 236.242 74.756C236.242 76.484 237.448 77.708 239.392 78.14L241.048 78.5C241.948 78.698 242.398 79.166 242.398 79.778C242.398 80.57 241.714 81.128 240.544 81.128C238.888 81.128 238.132 80.084 238.024 78.95L235.792 79.49C235.954 81.02 237.142 82.838 239.644 83.18V85.106H241.48ZM248.837 75.836C248.783 75.638 248.747 75.404 248.747 75.188C248.747 74.09 249.359 73.244 250.601 73.244C251.771 73.244 252.365 74 252.365 74.846C252.365 75.656 251.969 76.268 250.979 76.862L249.053 78.014C246.965 79.274 246.317 80.948 246.299 83H254.939V80.858H249.341C249.521 80.408 249.899 80.084 250.349 79.796L252.599 78.428C254.039 77.546 254.867 76.322 254.867 74.81C254.867 72.776 253.265 71.048 250.655 71.048C247.937 71.048 246.389 72.902 246.389 74.954C246.389 75.242 246.443 75.602 246.479 75.764L248.837 75.836ZM265.18 71.588C264.694 71.3 263.812 71.048 262.732 71.048C258.88 71.048 256.252 73.712 256.252 77.906C256.252 81.434 258.43 83.27 260.986 83.27C263.56 83.27 265.504 81.56 265.504 79.166C265.504 76.754 263.866 75.242 261.472 75.242C260.104 75.242 259.132 75.89 258.7 76.538C258.97 74.342 260.59 73.19 262.57 73.19C263.308 73.19 263.992 73.388 264.496 73.604L265.18 71.588ZM258.916 79.22C258.916 78.014 259.852 77.276 260.968 77.276C262.102 77.276 263.038 78.014 263.038 79.22C263.038 80.426 262.102 81.182 260.968 81.182C259.888 81.182 258.916 80.408 258.916 79.22ZM269.195 77.168C269.195 75.944 269.375 74.9 269.825 74.198C270.185 73.622 270.743 73.244 271.589 73.244C272.453 73.244 272.975 73.622 273.335 74.198C273.803 74.9 273.983 75.944 273.983 77.168C273.983 78.392 273.803 79.436 273.335 80.138C272.975 80.714 272.453 81.092 271.589 81.092C270.743 81.092 270.185 80.714 269.825 80.138C269.375 79.436 269.195 78.392 269.195 77.168ZM266.711 77.168C266.711 78.662 266.945 80.12 267.737 81.326C268.511 82.478 269.771 83.288 271.589 83.288C273.407 83.288 274.667 82.478 275.423 81.326C276.215 80.12 276.467 78.662 276.467 77.168C276.467 75.674 276.215 74.216 275.423 73.01C274.667 71.858 273.407 71.048 271.589 71.048C269.771 71.048 268.511 71.858 267.737 73.01C266.945 74.216 266.711 75.674 266.711 77.168ZM280.392 77.168C280.392 75.944 280.572 74.9 281.022 74.198C281.382 73.622 281.94 73.244 282.786 73.244C283.65 73.244 284.172 73.622 284.532 74.198C285 74.9 285.18 75.944 285.18 77.168C285.18 78.392 285 79.436 284.532 80.138C284.172 80.714 283.65 81.092 282.786 81.092C281.94 81.092 281.382 80.714 281.022 80.138C280.572 79.436 280.392 78.392 280.392 77.168ZM277.908 77.168C277.908 78.662 278.142 80.12 278.934 81.326C279.708 82.478 280.968 83.288 282.786 83.288C284.604 83.288 285.864 82.478 286.62 81.326C287.412 80.12 287.664 78.662 287.664 77.168C287.664 75.674 287.412 74.216 286.62 73.01C285.864 71.858 284.604 71.048 282.786 71.048C280.968 71.048 279.708 71.858 278.934 73.01C278.142 74.216 277.908 75.674 277.908 77.168ZM288.834 81.488C288.834 82.388 289.572 83.126 290.472 83.126C291.39 83.126 292.128 82.388 292.128 81.488C292.128 80.588 291.39 79.85 290.472 79.85C289.572 79.85 288.834 80.588 288.834 81.488ZM296.142 77.168C296.142 75.944 296.322 74.9 296.772 74.198C297.132 73.622 297.69 73.244 298.536 73.244C299.4 73.244 299.922 73.622 300.282 74.198C300.75 74.9 300.93 75.944 300.93 77.168C300.93 78.392 300.75 79.436 300.282 80.138C299.922 80.714 299.4 81.092 298.536 81.092C297.69 81.092 297.132 80.714 296.772 80.138C296.322 79.436 296.142 78.392 296.142 77.168ZM293.658 77.168C293.658 78.662 293.892 80.12 294.684 81.326C295.458 82.478 296.718 83.288 298.536 83.288C300.354 83.288 301.614 82.478 302.37 81.326C303.162 80.12 303.414 78.662 303.414 77.168C303.414 75.674 303.162 74.216 302.37 73.01C301.614 71.858 300.354 71.048 298.536 71.048C296.718 71.048 295.458 71.858 294.684 73.01C293.892 74.216 293.658 75.674 293.658 77.168ZM307.339 77.168C307.339 75.944 307.519 74.9 307.969 74.198C308.329 73.622 308.887 73.244 309.733 73.244C310.597 73.244 311.119 73.622 311.479 74.198C311.947 74.9 312.127 75.944 312.127 77.168C312.127 78.392 311.947 79.436 311.479 80.138C311.119 80.714 310.597 81.092 309.733 81.092C308.887 81.092 308.329 80.714 307.969 80.138C307.519 79.436 307.339 78.392 307.339 77.168ZM304.855 77.168C304.855 78.662 305.089 80.12 305.881 81.326C306.655 82.478 307.915 83.288 309.733 83.288C311.551 83.288 312.811 82.478 313.567 81.326C314.359 80.12 314.611 78.662 314.611 77.168C314.611 75.674 314.359 74.216 313.567 73.01C312.811 71.858 311.551 71.048 309.733 71.048C307.915 71.048 306.655 71.858 305.881 73.01C305.089 74.216 304.855 75.674 304.855 77.168Z" fill="#25265E" fill-opacity="0.7"/>
<path d="M249.888 102V94.212H248.46C248.304 95.028 247.512 95.664 246.372 95.676V96.792H248.244V102H249.888ZM252.998 97.224C252.962 97.092 252.938 96.936 252.938 96.792C252.938 96.06 253.346 95.496 254.174 95.496C254.954 95.496 255.35 96 255.35 96.564C255.35 97.104 255.086 97.512 254.426 97.908L253.142 98.676C251.75 99.516 251.318 100.632 251.306 102H257.066V100.572H253.334C253.454 100.272 253.706 100.056 254.006 99.864L255.506 98.952C256.466 98.364 257.018 97.548 257.018 96.54C257.018 95.184 255.95 94.032 254.21 94.032C252.398 94.032 251.366 95.268 251.366 96.636C251.366 96.828 251.402 97.068 251.426 97.176L252.998 97.224ZM259.166 96.048C259.166 95.556 259.514 95.22 259.958 95.22C260.414 95.22 260.75 95.556 260.75 96.048C260.75 96.54 260.414 96.888 259.958 96.888C259.514 96.888 259.166 96.552 259.166 96.048ZM257.966 96.048C257.966 97.14 258.866 98.004 259.958 98.004C261.038 98.004 261.962 97.164 261.962 96.048C261.962 94.944 261.038 94.08 259.958 94.08C258.878 94.08 257.966 94.944 257.966 96.048ZM264.41 100.176C264.41 99.684 264.758 99.348 265.202 99.348C265.658 99.348 265.994 99.684 265.994 100.176C265.994 100.668 265.658 101.016 265.202 101.016C264.758 101.016 264.41 100.68 264.41 100.176ZM263.21 100.176C263.21 101.268 264.11 102.132 265.202 102.132C266.282 102.132 267.206 101.292 267.206 100.176C267.206 99.072 266.282 98.208 265.202 98.208C264.122 98.208 263.21 99.072 263.21 100.176ZM260.534 102L266.03 94.212H264.638L259.142 102H260.534Z" fill="#F25214"/>
<path d="M278.18 95.156H276.716L275.204 99.332L273.656 95.156H272.12L274.496 101H275.888L278.18 95.156ZM278.689 99.416C278.761 100.076 279.409 101.18 281.101 101.18C282.589 101.18 283.309 100.196 283.309 99.308C283.309 98.444 282.733 97.772 281.629 97.532L280.741 97.352C280.381 97.28 280.153 97.052 280.153 96.74C280.153 96.38 280.501 96.068 280.993 96.068C281.773 96.068 282.025 96.608 282.073 96.944L283.249 96.608C283.153 96.032 282.625 94.976 280.993 94.976C279.781 94.976 278.845 95.84 278.845 96.86C278.845 97.664 279.385 98.336 280.417 98.564L281.281 98.756C281.749 98.852 281.965 99.092 281.965 99.404C281.965 99.764 281.665 100.076 281.089 100.076C280.345 100.076 279.949 99.608 279.901 99.08L278.689 99.416ZM289.43 93.368H288.17V94.244C288.17 94.76 287.894 95.156 287.27 95.156H286.97V96.392H288.05V99.332C288.05 100.424 288.722 101.072 289.802 101.072C290.306 101.072 290.57 100.976 290.654 100.94V99.788C290.594 99.8 290.366 99.836 290.174 99.836C289.658 99.836 289.43 99.62 289.43 99.104V96.392H290.642V95.156H289.43V93.368ZM294.581 99.932C293.729 99.932 292.949 99.284 292.949 98.072C292.949 96.86 293.729 96.236 294.581 96.236C295.445 96.236 296.213 96.86 296.213 98.072C296.213 99.296 295.445 99.932 294.581 99.932ZM294.581 94.976C292.841 94.976 291.557 96.284 291.557 98.072C291.557 99.872 292.841 101.18 294.581 101.18C296.333 101.18 297.617 99.872 297.617 98.072C297.617 96.284 296.333 94.976 294.581 94.976ZM299.899 98.06C299.899 96.944 300.571 96.236 301.483 96.236C302.395 96.236 303.019 96.932 303.019 98.048C303.019 99.164 302.383 99.92 301.471 99.92C300.523 99.92 299.899 99.176 299.899 98.06ZM304.363 92.312H303.007V95.84C302.827 95.468 302.311 95 301.291 95C299.646 95 298.507 96.38 298.507 98.06C298.507 99.824 299.635 101.144 301.315 101.144C302.143 101.144 302.755 100.736 303.031 100.244C303.031 100.484 303.067 100.868 303.091 101H304.423C304.411 100.904 304.363 100.46 304.363 99.932V92.312ZM305.798 99.416C305.798 100.34 306.554 101.18 307.778 101.18C308.726 101.18 309.302 100.7 309.578 100.256C309.578 100.724 309.626 100.964 309.638 101H310.934C310.922 100.94 310.862 100.592 310.862 100.064V97.16C310.862 95.996 310.178 94.976 308.378 94.976C306.938 94.976 306.026 95.876 305.918 96.884L307.19 97.172C307.25 96.584 307.658 96.116 308.39 96.116C309.158 96.116 309.494 96.512 309.494 97.004C309.494 97.208 309.398 97.376 309.062 97.424L307.562 97.652C306.566 97.796 305.798 98.372 305.798 99.416ZM308.042 100.088C307.49 100.088 307.19 99.728 307.19 99.332C307.19 98.852 307.538 98.612 307.97 98.54L309.494 98.312V98.576C309.494 99.716 308.822 100.088 308.042 100.088ZM314.18 103.364L317.9 95.156H316.424L314.852 98.852L313.172 95.156H311.6L314.096 100.304L312.692 103.364H314.18Z" fill="#25265E" fill-opacity="0.4"/>
<path d="M242 99.8334H235L238.5 94.2083L242 99.8334Z" fill="#F25214"/>
<defs>
<filter id="filter0_d_37_27" x="195" y="26.2142" width="164" height="112.786" filterUnits="userSpaceOnUse" color-interpolation-filters="sRGB">
<feFlood flood-opacity="0" result="BackgroundImageFix"/>
<feColorMatrix in="SourceAlpha" type="matrix" values="0 0 0 0 0 0 0 0 0 0 0 0 0 0 0 0 0 0 127 0" result="hardAlpha"/>
<feOffset/>
<feGaussianBlur stdDeviation="12"/>
<feColorMatrix type="matrix" values="0 0 0 0 0 0 0 0 0 0.0941176 0 0 0 0 0.278431 0 0 0 0.12 0"/>
<feBlend mode="normal" in2="BackgroundImageFix" result="effect1_dropShadow_37_27"/>
<feBlend mode="normal" in="SourceGraphic" in2="effect1_dropShadow_37_27" result="shape"/>
</filter>
<linearGradient id="paint0_linear_37_27" x1="195.25" y1="2" x2="195" y2="141.5" gradientUnits="userSpaceOnUse">
<stop stop-color="#1CD8D2"/>
<stop offset="1" stop-color="#93EDC7"/>
</linearGradient>
</defs>
</svg>
