<svg width="56" height="56" viewBox="0 0 56 56" fill="none" xmlns="http://www.w3.org/2000/svg">
<circle cx="47" cy="47" r="9" fill="#1CD5CF"/>
<circle cx="16" cy="16" r="16" fill="#F9C70C"/>
<path fill-rule="evenodd" clip-rule="evenodd" d="M36.8261 32.2174H35.9973C35.8643 31.0295 35.4298 29.8953 34.735 28.9226L35.2491 28.4138C35.3586 28.3048 35.4455 28.1754 35.5049 28.0328C35.5643 27.8903 35.5951 27.7373 35.5954 27.5829C35.5957 27.4284 35.5656 27.2754 35.5068 27.1325C35.448 26.9897 35.3616 26.8599 35.2527 26.7504C35.1437 26.6409 35.0142 26.5542 34.8716 26.4948C34.729 26.4353 34.5761 26.4045 34.4217 26.4042C34.2672 26.4039 34.1142 26.434 33.9714 26.4928C33.8285 26.5517 33.6987 26.638 33.5892 26.747L33.0743 27.2634C32.1022 26.5701 30.9692 26.1365 29.7826 26.0035V25.5652C29.7826 25.2539 29.6589 24.9554 29.4388 24.7352C29.2186 24.5151 28.92 24.3913 28.6087 24.3913C28.2974 24.3913 27.9988 24.5151 27.7786 24.7352C27.5585 24.9554 27.4348 25.2539 27.4348 25.5652V26.1365C26.5332 26.3456 25.6809 26.7283 24.9257 27.2634L24.4108 26.747C24.1897 26.5268 23.8903 26.4035 23.5783 26.4042C23.2664 26.4049 22.9675 26.5294 22.7473 26.7504C22.5272 26.9715 22.404 27.2709 22.4046 27.5829C22.4053 27.8948 22.5298 28.1937 22.7509 28.4138L23.265 28.9226C22.5702 29.8953 22.1357 31.0295 22.0027 32.2174H21.1739C20.8626 32.2174 20.564 32.3412 20.3438 32.5613C20.1237 32.7815 20 33.08 20 33.3913C20 33.7026 20.1237 34.0011 20.3438 34.2213C20.564 34.4414 20.8626 34.5652 21.1739 34.5652H22.1381C22.3447 35.4686 22.7277 36.3223 23.265 37.0774L22.7509 37.5862C22.6414 37.6952 22.5545 37.8246 22.4951 37.9672C22.4357 38.1097 22.4049 38.2627 22.4046 38.4171C22.4043 38.5716 22.4344 38.7246 22.4932 38.8675C22.552 39.0103 22.6384 39.1401 22.7473 39.2496C22.8563 39.3591 22.9858 39.4458 23.1284 39.5052C23.271 39.5647 23.4239 39.5955 23.5783 39.5958C23.7328 39.5961 23.8858 39.566 24.0286 39.5072C24.1715 39.4483 24.3013 39.362 24.4108 39.253L24.9257 38.7366C25.6809 39.2717 26.5332 39.6544 27.4348 39.8635V40.4348C27.4348 40.7461 27.5585 41.0446 27.7786 41.2648C27.9988 41.4849 28.2974 41.6087 28.6087 41.6087C28.92 41.6087 29.2186 41.4849 29.4388 41.2648C29.6589 41.0446 29.7826 40.7461 29.7826 40.4348V39.9965C30.9692 39.8635 32.1022 39.4299 33.0743 38.7366L33.5892 39.253C33.6987 39.362 33.8285 39.4483 33.9714 39.5072C34.1142 39.566 34.2672 39.5961 34.4217 39.5958C34.5761 39.5955 34.729 39.5647 34.8716 39.5052C35.0142 39.4458 35.1437 39.3591 35.2527 39.2496C35.3616 39.1401 35.448 39.0103 35.5068 38.8675C35.5656 38.7246 35.5957 38.5716 35.5954 38.4171C35.5951 38.2627 35.5643 38.1097 35.5049 37.9672C35.4455 37.8246 35.3586 37.6952 35.2491 37.5862L34.735 37.0774C35.2723 36.3223 35.6553 35.4686 35.8619 34.5652H36.8261C37.1374 34.5652 37.436 34.4414 37.6562 34.2213C37.8763 34.0011 38 33.7026 38 33.3913C38 33.08 37.8763 32.7815 37.6562 32.5613C37.436 32.3412 37.1374 32.2174 36.8261 32.2174ZM29 37.6957C28.0713 37.6957 27.1634 37.4202 26.3912 36.9043C25.619 36.3883 25.0172 35.655 24.6618 34.797C24.3064 33.939 24.2134 32.9947 24.3946 32.0838C24.5758 31.173 25.023 30.3363 25.6797 29.6796C26.3364 29.0229 27.1731 28.5757 28.0839 28.3945C28.9948 28.2133 29.9389 28.3064 30.7969 28.6618C31.655 29.0172 32.3883 29.619 32.9043 30.3912C33.4203 31.1634 33.6957 32.0713 33.6957 33C33.6957 34.2454 33.2009 35.4397 32.3203 36.3204C31.4397 37.201 30.2454 37.6957 29 37.6957ZM44.6522 15H13.3478C12.7251 15 12.128 15.2473 11.6876 15.6876C11.2473 16.128 11 16.7251 11 17.3478V48.6522C11 49.2749 11.2473 49.872 11.6876 50.3124C12.128 50.7527 12.7251 51 13.3478 51H44.6522C45.2749 51 45.872 50.7527 46.3124 50.3124C46.7527 49.872 47 49.2749 47 48.6522V17.3478C47 16.7251 46.7527 16.128 46.3124 15.6876C45.872 15.2473 45.2749 15 44.6522 15ZM13.3478 29.8696H15.6957V36.1304H13.3478V29.8696ZM13.3478 38.4783H18.0435V40.8261H13.3478V38.4783ZM18.0435 43.1739C18.6662 43.1739 19.2634 42.9266 19.7037 42.4863C20.144 42.046 20.3913 41.4488 20.3913 40.8261V38.4783C20.3913 37.8556 20.144 37.2584 19.7037 36.8181C19.2634 36.3778 18.6662 36.1304 18.0435 36.1304V29.8696C18.6662 29.8696 19.2634 29.6222 19.7037 29.1819C20.144 28.7416 20.3913 28.1444 20.3913 27.5217V25.1739C20.3913 24.5512 20.144 23.954 19.7037 23.5137C19.2634 23.0734 18.6662 22.8261 18.0435 22.8261V22.0435H39.9565V43.9565H18.0435V43.1739ZM18.0435 25.1739V27.5217H13.3478V25.1739H18.0435ZM44.6522 48.6522H13.3478V43.1739H15.6957V43.9565C15.6957 44.5792 15.943 45.1764 16.3833 45.6167C16.8236 46.057 17.4208 46.3043 18.0435 46.3043H39.9565C40.5792 46.3043 41.1764 46.057 41.6167 45.6167C42.057 45.1764 42.3043 44.5792 42.3043 43.9565V22.0435C42.3043 21.4208 42.057 20.8236 41.6167 20.3833C41.1764 19.943 40.5792 19.6957 39.9565 19.6957H18.0435C17.4208 19.6957 16.8236 19.943 16.3833 20.3833C15.943 20.8236 15.6957 21.4208 15.6957 22.0435V22.8261H13.3478V17.3478H44.6522V48.6522Z" fill="#25265E"/>
</svg>
